<svg width="280" height="74" viewBox="0 0 280 74" fill="none" xmlns="http://www.w3.org/2000/svg">
<rect width="280" height="74" rx="16" fill="white"/>
<path d="M112.803 21.9429C109.076 23.2734 107.799 22.0654 106.732 19.0893L105.35 15.2554C104.02 11.5265 105.227 10.2485 108.202 9.18058L112.033 7.79755C115.76 6.46705 117.037 7.67501 118.104 10.6511L119.486 14.4851C120.816 18.214 119.608 19.492 116.634 20.5599L112.803 21.9429Z" fill="#FF4F3E"/>
<path d="M129.697 21.9429C133.424 23.2734 134.701 22.0654 135.768 19.0893L137.15 15.2554C138.48 11.5265 137.272 10.2485 134.298 9.18058L130.467 7.79755C126.74 6.46705 125.463 7.67501 124.396 10.6511L123.014 14.4851C121.684 18.214 122.892 19.492 125.866 20.5599L129.697 21.9429Z" fill="#FABC22"/>
<path d="M148.108 21.9429C144.381 23.2909 143.104 22.0654 142.037 19.0893L140.655 15.2554C139.325 11.5265 140.532 10.2485 143.506 9.18058L147.338 7.79755C151.064 6.46705 152.341 7.67501 153.409 10.6511L154.791 14.4851C156.12 18.214 154.913 19.492 151.939 20.5599L148.108 21.9429Z" fill="#06C92E"/>
<path d="M164.986 21.9429C168.713 23.2734 169.99 22.0654 171.057 19.0893L172.439 15.2554C173.769 11.5265 172.562 10.2485 169.587 9.18058L165.756 7.79755C162.03 6.46705 160.752 7.67501 159.685 10.6511L158.303 14.4851C156.973 18.214 158.181 19.492 161.155 20.5599L164.986 21.9429Z" fill="#0073E6"/>
<path d="M99.8088 45.1043C99.8088 45.2268 99.7913 45.3318 99.7388 45.4369C99.7038 45.5419 99.6338 45.647 99.5463 45.717C99.4589 45.8045 99.3714 45.857 99.2664 45.9096C99.1615 45.9621 99.039 45.9796 98.934 45.9796H97.4294C97.307 45.9796 97.202 45.9621 97.097 45.9096C96.9921 45.8745 96.8871 45.8045 96.8171 45.717C96.7471 45.6295 96.6772 45.5419 96.6247 45.4369C96.5722 45.3318 96.5547 45.2093 96.5547 45.1043V41.2528C96.5547 41.1303 96.5722 41.0252 96.6247 40.9202C96.6772 40.8151 96.7296 40.7101 96.8171 40.6401C96.9046 40.5525 96.9921 40.5 97.097 40.4475C97.202 40.4125 97.3245 40.3775 97.4294 40.3775H97.9018C98.1292 40.0799 98.3042 39.7647 98.4442 39.4146C98.6016 39.012 98.7416 38.6093 98.8465 38.1891C98.9515 37.734 99.039 37.2788 99.1265 36.8061C99.1964 36.3334 99.2489 35.8608 99.2839 35.3706L99.3714 33.9876C99.3889 33.7425 99.4939 33.5149 99.6688 33.3573C99.7563 33.2698 99.8613 33.2173 99.9662 33.1648C100.071 33.1122 100.194 33.0947 100.316 33.0947H106.894C107.017 33.0947 107.122 33.1122 107.244 33.1648C107.349 33.2173 107.454 33.2698 107.542 33.3573C107.629 33.4449 107.682 33.5324 107.734 33.6549C107.787 33.76 107.804 33.8825 107.804 34.0051V40.395H108.661C108.784 40.395 108.889 40.4125 108.994 40.465C109.099 40.5 109.204 40.57 109.274 40.6576C109.361 40.7451 109.414 40.8326 109.466 40.9377C109.519 41.0427 109.536 41.1653 109.536 41.2703V45.1218C109.536 45.2443 109.519 45.3493 109.466 45.4544C109.431 45.5594 109.361 45.6645 109.274 45.7345C109.186 45.822 109.099 45.8745 108.994 45.9271C108.889 45.9796 108.766 45.9971 108.661 45.9971H107.122C106.999 45.9971 106.894 45.9796 106.789 45.9271C106.684 45.8921 106.579 45.822 106.509 45.7345C106.422 45.647 106.369 45.5594 106.317 45.4544C106.264 45.3493 106.247 45.2268 106.247 45.1218V43.6512H99.8088V45.1043ZM104.235 36.4035H102.678L102.643 36.8236C102.573 37.5764 102.416 38.3117 102.206 39.0295C102.066 39.5021 101.856 39.9573 101.593 40.395H104.253V36.4035H104.235Z" fill="#0073E6"/>
<path d="M114.06 39.5546C114.218 40.0272 114.55 40.4299 114.988 40.6575C115.46 40.9026 115.985 41.0251 116.527 41.0076C116.877 41.0076 117.21 40.9901 117.559 40.9376C117.857 40.8851 118.137 40.815 118.417 40.71C118.574 40.6575 118.749 40.6225 118.924 40.6225C119.099 40.6225 119.256 40.6575 119.414 40.745C119.554 40.8326 119.676 40.9551 119.746 41.1127L120.096 41.8654C120.166 41.988 120.201 42.1455 120.201 42.2856C120.201 42.4432 120.166 42.6007 120.096 42.7233C120.026 42.8633 119.904 42.9684 119.781 43.0559C119.204 43.3885 118.574 43.6336 117.927 43.7737C117.332 43.8787 116.737 43.9312 116.142 43.9312C115.338 43.9487 114.533 43.8087 113.781 43.5286C113.116 43.2835 112.503 42.8983 111.996 42.4081C111.489 41.918 111.104 41.3052 110.841 40.6575C110.561 39.9397 110.421 39.1694 110.439 38.3816C110.439 37.6463 110.579 36.9111 110.841 36.2458C111.104 35.5806 111.489 34.9678 111.996 34.4601C112.503 33.9349 113.116 33.5323 113.781 33.2697C114.533 32.9721 115.338 32.832 116.142 32.832C116.807 32.832 117.454 32.9546 118.067 33.1822C118.679 33.4097 119.221 33.7599 119.694 34.1975C120.166 34.6352 120.551 35.1779 120.814 35.7556C121.093 36.4034 121.251 37.0861 121.233 37.7864C121.233 38.1365 121.216 38.4867 121.163 38.8368C121.128 39.0294 121.023 39.1869 120.866 39.327C120.726 39.467 120.551 39.5371 120.359 39.5546H114.06ZM117.734 37.2087C117.734 36.841 117.577 36.4734 117.297 36.2108C117.122 36.0532 116.93 35.9307 116.702 35.8432C116.475 35.7731 116.247 35.7381 116.02 35.7556C115.548 35.7206 115.058 35.8432 114.655 36.1058C114.323 36.3859 114.078 36.7535 113.938 37.1737L117.734 37.2087Z" fill="#0073E6"/>
<path d="M126.079 43.6336C125.957 43.6336 125.852 43.6161 125.747 43.5636C125.642 43.5111 125.537 43.4586 125.467 43.371C125.379 43.2835 125.327 43.196 125.274 43.0909C125.222 42.9859 125.204 42.8633 125.204 42.7583V36.6135H123.07C122.948 36.6135 122.843 36.596 122.738 36.5435C122.633 36.5084 122.528 36.4384 122.458 36.3509C122.37 36.2634 122.318 36.1758 122.265 36.0708C122.213 35.9657 122.195 35.8432 122.195 35.7382V33.9875C122.195 33.8649 122.213 33.7599 122.265 33.6374C122.318 33.5323 122.37 33.4273 122.458 33.3397C122.545 33.2522 122.633 33.1997 122.755 33.1472C122.86 33.0947 122.983 33.0771 123.105 33.0771H130.925C131.048 33.0771 131.153 33.0947 131.258 33.1472C131.363 33.1997 131.468 33.2522 131.538 33.3397C131.625 33.4273 131.678 33.5148 131.73 33.6199C131.783 33.7249 131.8 33.8474 131.8 33.9525V35.7031C131.8 35.8257 131.783 35.9307 131.73 36.0358C131.678 36.1408 131.625 36.2458 131.538 36.3159C131.45 36.4034 131.363 36.4559 131.258 36.5084C131.153 36.561 131.03 36.5785 130.925 36.5785H128.791V42.7058C128.791 42.8283 128.773 42.9334 128.721 43.0384C128.686 43.1434 128.616 43.2485 128.529 43.3185C128.441 43.406 128.354 43.4586 128.249 43.5111C128.144 43.5636 128.021 43.5811 127.916 43.5811H127.899L126.079 43.6336Z" fill="#0073E6"/>
<path d="M140.292 36.5435C139.802 36.2809 139.242 36.1409 138.682 36.1233C138.402 36.1233 138.122 36.1759 137.86 36.2634C137.597 36.3509 137.352 36.5085 137.142 36.7011C136.915 36.8936 136.74 37.1387 136.618 37.4188C136.478 37.734 136.408 38.0666 136.425 38.3992C136.425 38.7318 136.495 39.0645 136.635 39.3621C136.775 39.6247 136.95 39.8698 137.177 40.0798C137.615 40.465 138.175 40.6751 138.752 40.6751C139.329 40.6576 139.907 40.4825 140.396 40.1674C140.589 40.0273 140.816 39.9573 141.044 39.9573C141.184 39.9573 141.324 39.9923 141.446 40.0448C141.569 40.1149 141.674 40.2024 141.761 40.3074L142.478 41.2703C142.601 41.4278 142.671 41.6204 142.671 41.8305C142.671 41.9705 142.636 42.1281 142.583 42.2507C142.513 42.3732 142.426 42.4957 142.303 42.5833C141.726 43.0735 141.044 43.4586 140.309 43.6862C139.732 43.8438 139.119 43.9313 138.525 43.9488C137.702 43.9663 136.88 43.8263 136.11 43.5461C135.428 43.3011 134.798 42.9159 134.256 42.4257C133.748 41.9355 133.346 41.3403 133.084 40.6751C132.804 39.9573 132.664 39.187 132.681 38.3992C132.681 37.6639 132.821 36.9462 133.084 36.2634C133.346 35.5981 133.731 34.9854 134.221 34.4777C134.711 33.97 135.323 33.5674 135.97 33.2873C136.688 32.9897 137.457 32.8496 138.245 32.8496C138.874 32.8496 139.522 32.9021 140.134 33.0422C140.764 33.1997 141.376 33.4623 141.919 33.8475C142.076 33.9175 142.198 34.0401 142.286 34.1801C142.373 34.3202 142.426 34.4952 142.426 34.6528C142.426 34.8103 142.373 34.9679 142.286 35.108L141.604 36.2284C141.534 36.3684 141.411 36.491 141.271 36.5785C141.131 36.666 140.974 36.7011 140.799 36.7011C140.624 36.666 140.449 36.631 140.292 36.5435Z" fill="#0073E6"/>
<path d="M148.14 38.6093V42.7584C148.14 42.8809 148.122 42.986 148.07 43.091C148.035 43.196 147.965 43.3011 147.877 43.3711C147.79 43.4586 147.702 43.5112 147.597 43.5637C147.492 43.6162 147.37 43.6337 147.265 43.6337H145.515C145.393 43.6337 145.288 43.6162 145.183 43.5637C145.078 43.5112 144.973 43.4586 144.903 43.3711C144.816 43.2836 144.746 43.196 144.711 43.0735C144.658 42.9685 144.641 42.8459 144.641 42.7234V33.9701C144.641 33.8475 144.658 33.7425 144.711 33.6374C144.746 33.5324 144.816 33.4274 144.903 33.3573C144.991 33.2698 145.078 33.2173 145.183 33.1648C145.288 33.1122 145.41 33.0947 145.515 33.0947H147.265C147.387 33.0947 147.492 33.1122 147.615 33.1648C147.72 33.2173 147.825 33.2698 147.912 33.3573C148 33.4449 148.052 33.5324 148.105 33.6549C148.157 33.76 148.175 33.8825 148.175 34.0051V37.699L150.886 33.69C151.009 33.5149 151.184 33.3748 151.359 33.2698C151.551 33.1648 151.761 33.1122 151.989 33.1122H153.616C153.738 33.1122 153.861 33.1297 153.983 33.1823C154.088 33.2348 154.193 33.3048 154.28 33.3923C154.438 33.5674 154.543 33.795 154.543 34.0226C154.543 34.2151 154.473 34.4077 154.35 34.5653L151.849 37.839L153.003 39.4146C153.301 39.8873 153.756 40.2374 154.28 40.4125C154.56 40.4475 154.805 40.57 154.998 40.7626C155.138 40.9902 155.19 41.2703 155.173 41.5329V42.9685C155.173 43.161 155.103 43.3361 154.963 43.4761C154.84 43.6337 154.665 43.7212 154.473 43.7562C154.35 43.7562 154.228 43.7913 154.123 43.7913C154 43.7913 153.896 43.7913 153.773 43.7913C153.476 43.7913 153.178 43.7562 152.898 43.7037C152.583 43.6337 152.268 43.5112 151.989 43.3536C151.656 43.161 151.341 42.9334 151.079 42.6708C150.729 42.3207 150.414 41.9356 150.152 41.5154L148.14 38.6093Z" fill="#0073E6"/>
<path d="M165.266 43.6512C165.144 43.6512 165.039 43.6337 164.934 43.5812C164.829 43.5287 164.724 43.4761 164.654 43.3886C164.566 43.3011 164.514 43.2135 164.461 43.1085C164.409 43.0035 164.391 42.8809 164.391 42.7759V38.1366L161.05 43.056C160.927 43.231 160.787 43.3711 160.612 43.4761C160.438 43.5812 160.245 43.6512 160.035 43.6337H158.023C157.901 43.6337 157.796 43.6162 157.691 43.5637C157.586 43.5112 157.481 43.4586 157.411 43.3711C157.323 43.2836 157.253 43.196 157.218 43.0735C157.166 42.9685 157.148 42.8459 157.148 42.7234V33.9701C157.148 33.8475 157.166 33.7425 157.218 33.6374C157.253 33.5324 157.323 33.4274 157.411 33.3573C157.498 33.2698 157.586 33.2173 157.691 33.1648C157.796 33.1122 157.918 33.0947 158.023 33.0947H159.773C159.895 33.0947 160 33.1122 160.123 33.1648C160.228 33.2173 160.333 33.2698 160.42 33.3573C160.507 33.4449 160.56 33.5324 160.612 33.6549C160.665 33.76 160.682 33.8825 160.682 34.0051V38.6093L164.024 33.6899C164.146 33.5324 164.286 33.3923 164.444 33.2698C164.601 33.1648 164.811 33.0947 165.004 33.1122H167.033C167.156 33.1122 167.261 33.1297 167.383 33.1823C167.488 33.2348 167.593 33.2873 167.68 33.3748C167.768 33.4624 167.82 33.5499 167.873 33.6724C167.925 33.7775 167.943 33.9 167.943 34.0226V42.7759C167.943 42.8984 167.925 43.0035 167.873 43.1085C167.82 43.2135 167.768 43.3186 167.68 43.3886C167.593 43.4761 167.506 43.5287 167.401 43.5812C167.296 43.6337 167.173 43.6512 167.068 43.6512H167.051H165.266Z" fill="#0073E6"/>
<path d="M178.6 43.6516C178.478 43.6516 178.373 43.6341 178.268 43.5816C178.163 43.529 178.058 43.4765 177.988 43.389C177.9 43.3014 177.848 43.2139 177.795 43.1089C177.743 43.0038 177.725 42.8813 177.725 42.7762V38.137L174.384 43.0564C174.261 43.2314 174.121 43.3715 173.947 43.4765C173.772 43.5816 173.579 43.6516 173.369 43.6341H171.375C171.252 43.6341 171.147 43.6166 171.042 43.564C170.937 43.529 170.832 43.459 170.762 43.3715C170.675 43.2839 170.622 43.1964 170.57 43.0914C170.517 42.9863 170.5 42.8638 170.5 42.7587V34.0054C170.5 33.8829 170.517 33.7779 170.57 33.6553C170.622 33.5503 170.675 33.4452 170.762 33.3577C170.85 33.2702 170.937 33.2176 171.06 33.1651C171.165 33.1126 171.287 33.0951 171.41 33.0951H173.142C173.264 33.0951 173.369 33.1126 173.492 33.1651C173.597 33.2176 173.702 33.2702 173.789 33.3577C173.877 33.4452 173.929 33.5328 173.982 33.6553C174.034 33.7603 174.051 33.8829 174.051 34.0054V38.6097L177.393 33.6903C177.516 33.5328 177.655 33.3927 177.813 33.2702C177.97 33.1651 178.18 33.0951 178.373 33.1126H180.402C180.525 33.1126 180.63 33.1301 180.752 33.1826C180.857 33.2352 180.962 33.2877 181.05 33.3752C181.137 33.4627 181.189 33.5503 181.242 33.6728C181.294 33.7779 181.312 33.9004 181.312 34.0229V42.7762C181.312 42.8988 181.294 43.0038 181.242 43.1089C181.207 43.2139 181.137 43.319 181.05 43.389C180.962 43.4765 180.875 43.529 180.77 43.5816C180.665 43.6341 180.542 43.6516 180.437 43.6516H180.42H178.6ZM178.093 28.5084C178.285 28.4909 178.495 28.5259 178.67 28.5959C178.863 28.6659 179.02 28.771 179.16 28.911C179.405 29.1911 179.527 29.5588 179.51 29.9439C179.51 30.259 179.422 30.5566 179.265 30.8367C179.108 31.0993 178.88 31.3269 178.618 31.4845C178.023 31.9046 177.131 32.1147 175.941 32.1147C174.629 32.1147 173.684 31.9046 173.124 31.4845C172.862 31.3094 172.652 31.0818 172.512 30.8192C172.354 30.5566 172.285 30.2415 172.285 29.9439C172.267 29.5588 172.407 29.1911 172.634 28.911C172.774 28.771 172.932 28.6659 173.124 28.5959C173.317 28.5259 173.509 28.5084 173.702 28.5259C174.017 28.4909 174.331 28.5784 174.594 28.771C174.786 28.946 174.926 29.1561 174.996 29.4012C175.066 29.5938 175.171 29.7688 175.329 29.9264C175.504 30.084 175.749 30.154 175.976 30.1365C176.081 30.1365 176.186 30.1365 176.291 30.1015C176.396 30.0665 176.483 30.0139 176.571 29.9439C176.711 29.7863 176.816 29.6113 176.868 29.4187C176.938 29.1736 177.078 28.946 177.271 28.7885C177.498 28.5784 177.795 28.4909 178.093 28.5084Z" fill="#0073E6"/>
<path d="M122.772 60.353C122.772 60.4756 122.755 60.5806 122.702 60.6857C122.667 60.7907 122.598 60.8957 122.51 60.9658C122.423 61.0533 122.335 61.1058 122.23 61.1583C122.125 61.2108 122.003 61.2284 121.898 61.2284H120.148C120.026 61.2284 119.921 61.2108 119.816 61.1583C119.711 61.1233 119.606 61.0533 119.536 60.9658C119.448 60.8782 119.396 60.7907 119.343 60.6857C119.291 60.5806 119.273 60.4581 119.273 60.353V51.5822C119.273 51.4597 119.291 51.3546 119.343 51.2321C119.396 51.127 119.448 51.022 119.536 50.9345C119.623 50.8469 119.711 50.7944 119.833 50.7419C119.938 50.6894 120.061 50.6719 120.183 50.6719H121.845C122.055 50.6719 122.265 50.7244 122.44 50.8294C122.632 50.917 122.79 51.057 122.912 51.2146L125.607 54.2607L128.091 51.2496C128.213 51.092 128.388 50.952 128.563 50.8469C128.738 50.7419 128.948 50.6894 129.141 50.6894H130.715C130.838 50.6894 130.943 50.7069 131.065 50.7594C131.17 50.8119 131.275 50.8644 131.363 50.952C131.45 51.0395 131.503 51.127 131.555 51.2496C131.607 51.3546 131.625 51.4772 131.625 51.5997V60.353C131.625 60.4756 131.607 60.5806 131.555 60.6857C131.52 60.7907 131.45 60.8957 131.363 60.9658C131.275 61.0533 131.188 61.1058 131.083 61.1583C130.978 61.2108 130.855 61.2284 130.75 61.2284H129.001C128.878 61.2284 128.773 61.2108 128.668 61.1583C128.563 61.1058 128.458 61.0533 128.388 60.9658C128.301 60.8782 128.248 60.7907 128.196 60.6857C128.143 60.5806 128.126 60.4581 128.126 60.353V56.0639L126.166 58.3223C126.097 58.4098 125.992 58.4798 125.887 58.5323C125.782 58.5849 125.659 58.6024 125.554 58.6024C125.449 58.6024 125.327 58.5849 125.222 58.5323C125.117 58.4798 125.029 58.4273 124.942 58.3398L122.86 56.0639L122.772 60.353Z" fill="#0073E6"/>
<path d="M142.243 61.245C142.12 61.245 142.015 61.2275 141.91 61.1749C141.805 61.1224 141.7 61.0699 141.63 60.9824C141.543 60.8948 141.49 60.8073 141.438 60.7023C141.385 60.5972 141.368 60.4747 141.368 60.3696V55.7304L138.026 60.6497C137.904 60.8248 137.764 60.9649 137.589 61.0699C137.414 61.1749 137.222 61.245 137.012 61.2275H135C134.877 61.2275 134.772 61.2099 134.667 61.1574C134.562 61.1049 134.457 61.0524 134.387 60.9649C134.3 60.8773 134.247 60.7898 134.195 60.6847C134.142 60.5797 134.125 60.4572 134.125 60.3521V51.5988C134.125 51.4763 134.142 51.3712 134.195 51.2487C134.247 51.1437 134.3 51.0386 134.387 50.9511C134.475 50.8635 134.562 50.811 134.685 50.7585C134.79 50.706 134.912 50.6885 135.035 50.6885H136.767C136.889 50.6885 136.994 50.706 137.117 50.7585C137.222 50.811 137.327 50.8635 137.414 50.9511C137.502 51.0386 137.554 51.1261 137.607 51.2487C137.659 51.3537 137.677 51.4763 137.677 51.5988V56.2031L141.018 51.2837C141.141 51.1261 141.28 50.9861 141.455 50.8811C141.613 50.776 141.823 50.706 142.015 50.7235H144.045C144.167 50.7235 144.272 50.741 144.395 50.7935C144.5 50.846 144.605 50.8986 144.692 50.9861C144.78 51.0736 144.832 51.1612 144.884 51.2837C144.937 51.3887 144.954 51.5113 144.954 51.6338V60.3871C144.954 60.5097 144.937 60.6147 144.884 60.7198C144.832 60.8248 144.78 60.9298 144.692 60.9999C144.605 61.0874 144.517 61.1399 144.412 61.1924C144.307 61.245 144.185 61.2625 144.08 61.2625H142.243V61.245Z" fill="#0073E6"/>
<path d="M150.921 65.027C150.921 65.1495 150.903 65.2546 150.851 65.3596C150.798 65.4646 150.746 65.5697 150.658 65.6397C150.571 65.7272 150.484 65.7798 150.379 65.8323C150.274 65.8848 150.151 65.9023 150.046 65.9023H148.297C148.174 65.9023 148.069 65.8848 147.964 65.8323C147.859 65.7798 147.754 65.7272 147.684 65.6397C147.597 65.5522 147.544 65.4646 147.492 65.3596C147.439 65.2546 147.422 65.132 147.422 65.027V51.5644C147.422 51.4418 147.439 51.3368 147.492 51.2143C147.544 51.1092 147.597 51.0042 147.684 50.9166C147.772 50.8291 147.859 50.7766 147.982 50.7241C148.087 50.6716 148.209 50.654 148.332 50.654H150.151C150.256 50.654 150.344 50.6716 150.449 50.7066C150.536 50.7416 150.623 50.7941 150.693 50.8641C150.763 50.9342 150.816 51.0217 150.868 51.1092C150.903 51.1968 150.921 51.3018 150.938 51.4068V51.4243C151.288 51.1092 151.691 50.8641 152.128 50.6891C152.67 50.4615 153.265 50.3564 153.86 50.3739C154.525 50.3739 155.19 50.4965 155.785 50.7766C156.362 51.0392 156.869 51.4243 157.272 51.897C157.691 52.4047 158.006 52.9824 158.216 53.6127C158.444 54.2954 158.566 55.0307 158.566 55.7485C158.566 56.5188 158.426 57.2715 158.164 57.9893C157.901 58.6721 157.517 59.2848 157.009 59.81C156.502 60.3352 155.889 60.7379 155.225 61.018C154.49 61.3331 153.703 61.4731 152.898 61.4731C152.548 61.4731 152.181 61.4381 151.831 61.3856C151.516 61.3506 151.218 61.2631 150.938 61.1405L150.921 65.027ZM150.921 57.8318C151.148 57.9718 151.393 58.0769 151.656 58.1469C151.953 58.2169 152.251 58.2344 152.565 58.2344C152.88 58.2519 153.195 58.2169 153.493 58.0944C153.79 57.9718 154.053 57.7792 154.262 57.5517C154.63 57.079 154.822 56.4837 154.805 55.871C154.822 55.3108 154.63 54.7681 154.28 54.3304C154.088 54.1204 153.86 53.9453 153.58 53.8403C153.318 53.7352 153.02 53.6827 152.74 53.7002C152.39 53.7177 152.041 53.8052 151.726 53.9628C151.411 54.1204 151.131 54.3479 150.921 54.628V57.8318Z" fill="#0073E6"/>
</svg>
