<svg width="280" height="74" viewBox="0 0 280 74" fill="none" xmlns="http://www.w3.org/2000/svg">
<rect width="280" height="74" rx="16" fill="#007FC8"/>
<g clip-path="url(#clip0_67_189)">
<rect width="168" height="74" transform="translate(56)" fill="white"/>
<path d="M224 0H56V74H224V0Z" fill="#007FC8"/>
<path d="M130.736 43.2274H120.671L133.52 26.1888C133.8 25.8147 133.722 25.2691 133.349 24.9885C133.209 24.8794 133.022 24.817 132.836 24.817H114.247C112.613 24.817 111.276 26.1577 111.276 27.7945C111.276 29.4313 112.613 30.7719 114.247 30.7719H122.6L109.704 47.8261C109.409 48.2002 109.487 48.7302 109.86 49.0264C110.016 49.1511 110.202 49.2135 110.389 49.1979H130.72C132.353 49.1199 133.613 47.717 133.536 46.0645C133.458 44.5368 132.244 43.3209 130.72 43.243V43.2274H130.736ZM195.696 24.817C194.062 24.817 192.724 26.1577 192.724 27.7945V37.7869L176.671 25.0197C176.313 24.7235 175.769 24.7703 175.473 25.1444C175.349 25.3003 175.287 25.4873 175.287 25.69V46.2204C175.287 47.8573 176.624 49.1979 178.258 49.1979C179.891 49.1979 181.229 47.8728 181.229 46.2204V36.228L197.282 49.0108C197.656 49.307 198.2 49.2447 198.496 48.8705C198.62 48.7146 198.682 48.5276 198.682 48.3405V27.7945C198.667 26.1421 197.344 24.817 195.696 24.817ZM153.213 43.7886C146.416 43.7886 141.344 40.2032 141.344 36.9919C141.344 33.7806 146.431 30.1952 153.213 30.1952C160.011 30.1952 165.082 33.7806 165.082 36.9919C165.082 40.2032 160.027 43.7886 153.213 43.7886ZM153.213 24.2402C143.382 24.2402 135.402 29.9457 135.402 36.9919C135.402 44.038 143.382 49.7435 153.213 49.7435C163.044 49.7435 171.024 44.038 171.024 36.9919C171.024 29.9457 163.044 24.2402 153.213 24.2402ZM94.74 43.8042C90.9911 43.8042 87.9422 40.7644 87.9422 37.0075C87.9422 33.2506 90.9756 30.1952 94.7244 30.1952C98.4733 30.1952 101.522 33.235 101.522 36.9919V37.0075C101.522 40.7488 98.4889 43.7886 94.74 43.8042ZM94.74 24.2402C87.7089 24.2402 82.0156 29.9457 82 36.9919C82 44.038 87.6933 49.7435 94.7244 49.7591C101.756 49.7591 107.449 44.0536 107.464 37.0075V36.9919C107.449 29.9457 101.756 24.2402 94.74 24.2402Z" fill="white"/>
</g>
<defs>
<clipPath id="clip0_67_189">
<rect width="168" height="74" fill="white" transform="translate(56)"/>
</clipPath>
</defs>
</svg>
