<svg width="280" height="74" viewBox="0 0 280 74" fill="none" xmlns="http://www.w3.org/2000/svg">
<rect width="280" height="74" rx="16" fill="#BE11A5"/>
<path d="M29.8628 50.1856L22.7578 23.4717H27.4624L32.9352 43.9833L38.7919 23.4717H43.1605L49.0173 44.081L54.49 23.4717H59.1467L52.0417 50.1856H46.617L40.9042 30.26L35.2395 50.1856H29.8628Z" fill="white"/>
<path d="M62.4141 23.4717H66.8787V50.1856H62.4141V23.4717Z" fill="white"/>
<path d="M76.3373 45.9866H87.1388V50.1866H71.9688V23.5215H76.3373V45.9866Z" fill="white"/>
<path d="M100.864 23.5213C104.272 23.4237 107.585 24.84 109.937 27.3795C114.786 32.7027 114.786 41.0051 109.937 46.3283C107.585 48.8679 104.272 50.2841 100.864 50.1865H90.3984V23.5213H100.864ZM100.864 45.9865C103.36 45.9865 105.424 45.1074 106.961 43.3981C108.593 41.64 109.457 39.2469 109.361 36.8539C109.457 34.412 108.593 32.0679 106.961 30.3097C105.376 28.6004 103.168 27.6237 100.864 27.7213H94.767V45.9865H100.864Z" fill="white"/>
<path d="M137.018 42.5672C137.066 44.6184 136.202 46.6207 134.714 47.9882C133.178 49.4533 131.162 50.2347 129.049 50.1858H117.672V23.5207H128.233C130.25 23.4719 132.218 24.2533 133.754 25.6207C135.242 26.9393 136.058 28.8928 136.01 30.8951C136.106 33.044 135.05 35.0951 133.322 36.3161C135.626 37.4882 137.066 39.93 137.018 42.5672ZM122.04 27.623V34.6556H128.233C130.154 34.6556 131.69 33.0928 131.69 31.1393C131.69 29.1858 130.154 27.623 128.233 27.623H122.04ZM129.049 46.0347C131.066 45.937 132.65 44.2277 132.554 42.1765C132.506 40.223 130.922 38.6603 129.049 38.6114H122.04V46.0835L129.049 46.0347Z" fill="white"/>
<path d="M145.564 45.9866H157.325V50.1866H141.195V23.5215H157.133V27.7215H145.564V34.6564H156.221V38.8075H145.564V45.9866Z" fill="white"/>
<path d="M176.381 50.1855L170.716 40.4669H165.58V50.1855H161.211V23.4716H171.868C174.125 23.4227 176.333 24.3506 177.917 26.0111C179.549 27.5739 180.461 29.7716 180.413 32.0669C180.365 35.4855 178.301 38.5623 175.133 39.7832L181.182 50.1855H176.381ZM165.58 27.6227V36.5599H171.82C174.221 36.4623 176.093 34.3623 175.997 31.8716C175.901 29.5762 174.077 27.7204 171.82 27.6227H165.58Z" fill="white"/>
<path d="M199.661 50.1855L194.044 40.4669H188.908V50.1855H184.539V23.4716H195.196C197.453 23.4227 199.661 24.3506 201.245 26.0111C202.877 27.5739 203.79 29.7716 203.742 32.0669C203.694 35.4855 201.629 38.5623 198.461 39.7832L204.51 50.1855H199.661ZM188.908 27.6227V36.5599H195.148C197.597 36.4134 199.421 34.3134 199.277 31.8227C199.133 29.5762 197.357 27.7204 195.148 27.6227H188.908Z" fill="white"/>
<path d="M207.68 23.4717H212.048V50.1856H207.68V23.4717Z" fill="white"/>
<path d="M221.556 45.9866H233.318V50.1866H217.188V23.5215H233.126V27.7215H221.556V34.6564H232.213V38.8075H221.556V45.9866Z" fill="white"/>
<path d="M236.391 44.1305L240.183 41.9329C241.239 44.9608 243.448 46.4259 246.76 46.4259C250.072 46.4259 251.705 45.0096 251.705 42.9096C251.753 41.9329 251.225 40.9561 250.36 40.4678C249.496 39.8817 247.912 39.2468 245.656 38.5631C243.112 37.7817 241.863 37.2933 240.087 36.1212C238.311 34.9491 237.495 33.1422 237.495 30.7491C237.399 28.6003 238.359 26.5003 239.991 25.1329C241.671 23.7166 243.832 22.984 246.04 23.0329C250.024 22.8863 253.673 25.2305 255.305 28.8933L251.657 30.9933C250.553 28.5515 248.68 27.2817 246.088 27.2817C243.496 27.2817 241.911 28.5515 241.911 30.6026C241.911 32.6538 243.208 33.484 247.288 34.7538C248.296 35.0957 249.016 35.3398 249.496 35.5352C249.976 35.7305 250.649 35.9747 251.465 36.3166C252.137 36.5608 252.809 36.9515 253.385 37.391C254.777 38.5143 256.313 40.3212 256.121 42.8608C256.217 45.1073 255.257 47.2073 253.529 48.6236C251.801 50.0398 249.544 50.7236 246.712 50.7236C241.479 50.6747 237.735 48.184 236.391 44.1305Z" fill="white"/>
</svg>
