<svg width="280" height="74" viewBox="0 0 280 74" fill="none" xmlns="http://www.w3.org/2000/svg">
<path d="M133.124 52.0024H137.584L143.819 28.8394V52.0024H148.837V21.3887H141.943L135.709 43.8421L129.475 21.3887H122.43V52.0024H126.738V28.8394L133.124 52.0024ZM169.82 36.8476C169.82 31.4243 167.134 29.3969 161.558 29.3969C158.061 29.3969 155.324 30.4613 153.702 31.4243V35.7325C155.071 34.6681 158.163 33.5531 160.9 33.5531C163.484 33.5531 164.549 34.5161 164.549 36.7969V38.0133H163.738C155.73 38.0133 152.08 40.6996 152.08 45.2106C152.08 49.7215 154.767 52.2558 158.872 52.2558C161.964 52.2558 163.332 51.2928 164.295 50.2284H164.549C164.549 50.7859 164.802 51.5969 164.954 52.0024H170.124C169.972 50.2284 169.871 48.3531 169.871 46.5791C169.82 46.5791 169.82 36.8476 169.82 36.8476ZM164.549 46.7311C163.89 47.6941 162.674 48.5051 160.747 48.5051C158.568 48.5051 157.504 47.1366 157.504 45.2613C157.504 42.6763 159.278 41.764 163.89 41.764H164.701V46.7818H164.549V46.7311ZM178.893 29.8024H174.027V58.3887H179.298V49.4681C180.667 51.4955 182.542 52.4585 184.874 52.4585C190.043 52.4585 193.541 48.4037 193.541 40.9531C193.541 33.5024 190.145 29.4476 185.127 29.4476C182.694 29.4476 180.667 30.512 179.146 32.6914C179.197 32.6407 178.893 29.8024 178.893 29.8024ZM183.404 48.3531C180.717 48.3531 179.197 46.0722 179.197 41.0544C179.197 35.8846 180.667 33.6037 183.657 33.6037C186.495 33.6037 187.965 35.8846 187.965 40.9024C187.965 46.0722 186.495 48.3531 183.404 48.3531ZM209.912 52.0024H215.893L207.479 40.0914L214.93 29.8024H209.658L202.208 40.0914V29.8024H196.937V52.0024H202.208V41.1558L209.912 52.0024ZM233.48 50.5325V46.2243C231.858 47.2887 229.172 48.2517 226.587 48.2517C222.786 48.2517 221.316 46.4777 221.012 42.6763H233.582V39.838C233.582 32.1339 230.186 29.2955 224.915 29.2955C218.528 29.2955 215.437 34.1613 215.437 40.9531C215.437 48.6572 219.238 52.4585 225.878 52.4585C229.578 52.4079 232.011 51.5969 233.48 50.5325ZM224.965 33.6037C227.55 33.6037 228.361 35.7832 228.361 38.4695V38.875H221.012C221.164 35.3777 222.532 33.6037 224.965 33.6037ZM252.437 34.0092V29.8024H234.849V34.0092H241.083V52.0024H246.354V34.0092H252.437Z" fill="black"/>
<path d="M91.1536 57.4257C102.406 57.4257 111.478 48.3531 111.478 37.101C111.478 25.849 102.406 16.7764 91.1536 16.7764C79.9016 16.7764 70.829 25.849 70.829 37.101C70.7276 48.3531 79.9522 57.4257 91.1536 57.4257Z" fill="#FED42B"/>
<path d="M47.7231 57.4257C58.9481 57.4257 68.0477 48.326 68.0477 37.101C68.0477 25.876 58.9481 16.7764 47.7231 16.7764C36.4981 16.7764 27.3984 25.876 27.3984 37.101C27.3984 48.326 36.4981 57.4257 47.7231 57.4257Z" fill="#FC3F1D"/>
<path d="M50.6646 28.1803H48.6372C45.1399 28.1803 43.3659 29.9542 43.3659 32.6405C43.3659 35.6309 44.5824 37.1008 47.1673 38.8748L49.1947 40.3446L43.3659 49.4172H38.6016L44.1769 41.1556C40.9331 38.8748 39.1591 36.6953 39.1591 32.894C39.1591 28.1296 42.4029 24.8857 48.6372 24.8857H54.8714V49.2652H50.8166V28.1296H50.6646V28.1803Z" fill="white"/>
<mask id="mask0_67_56" style="mask-type:luminance" maskUnits="userSpaceOnUse" x="70" y="16" width="42" height="42">
<path d="M91.1536 57.4257C102.406 57.4257 111.478 48.3531 111.478 37.101C111.478 25.849 102.406 16.7764 91.1536 16.7764C79.9016 16.7764 70.829 25.849 70.829 37.101C70.7276 48.3531 79.9522 57.4257 91.1536 57.4257Z" fill="white"/>
</mask>
<g mask="url(#mask0_67_56)">
<path d="M81.1652 27.9271L63.2734 51.3435L68.0378 56.7668L81.3173 39.1792L79.9488 48.8093L87.3995 51.3942L96.4721 36.8983C96.0666 39.5846 95.4077 45.8189 101.338 47.7449C110.664 50.5833 118.824 33.8065 122.575 25.2915L117.152 22.4531C112.945 31.2723 106.457 41.0038 103.872 40.3449C101.287 39.686 103.619 31.4244 105.089 26.1024V25.9504L96.8269 23.112L86.9433 39.2298L88.3118 30.4107L81.1652 27.9271Z" fill="black"/>
</g>
</svg>
