<svg width="910" height="773" viewBox="0 0 910 773" fill="none" xmlns="http://www.w3.org/2000/svg">
  <path d="M470.543 327.007C458.9 329.417 449.348 334.418 441.97 342.034C427.996 356.426 423.252 374.44 427.74 396.074C430.953 411.565 438.388 423.993 450.136 433.42C461.847 442.854 476.34 445.744 493.594 442.173C510.848 438.601 523.341 429.927 531.043 416.196C538.745 402.465 540.997 387.793 537.768 372.225C534.539 356.658 526.891 344.353 514.846 335.227C502.809 326.138 488.064 323.38 470.543 327.007Z" fill="#F8F6F1" />
  <path d="M799.478 310.78C869.333 207.065 789.874 68.3164 665.013 75.9349L587.688 80.6783C582.973 80.9778 578.401 78.8997 575.485 75.2056L527.722 14.2194C450.603 -84.2647 294.029 -51.6177 262.761 69.4199L243.394 144.38C242.196 148.966 238.865 152.68 234.419 154.276L161.613 180.807C44.1029 223.673 26.7797 382.573 132.319 449.746L197.684 491.371C201.677 493.927 204.17 498.266 204.31 502.972L207.102 580.35C211.598 705.286 357.464 770.917 453.951 691.375L513.722 642.115C517.355 639.095 522.279 638.076 526.815 639.405L601.303 660.717C721.574 695.075 829.034 576.692 783.175 460.396L754.731 388.328C752.98 383.915 753.541 378.944 756.189 375.014L799.478 310.78ZM671.604 392.163C666.279 410.059 657.661 426.287 645.706 440.819C633.752 455.351 618.718 468.093 600.606 479.044C582.494 489.996 561.601 497.902 537.972 502.792C514.343 507.683 490.154 507.954 465.451 503.636C444.507 499.973 426.435 492.691 410.947 482.128C407.354 509.334 386.037 530.937 358.63 534.501L319.267 542.808L316.76 527.648C316.676 527.626 316.614 527.519 316.529 527.497L279.703 302.924L279.616 302.504L270.181 244.926L263.787 214.096C315.23 196.086 347.521 185.742 360.652 183.024C373.784 180.306 384.341 178.996 392.361 179.087L396.533 201.503C397.902 208.103 400.546 224.11 404.463 249.523C408.381 274.937 410.695 289.738 411.397 293.891C422.296 282.522 435.757 272.374 451.743 263.455C467.728 254.535 484.008 248.38 500.575 244.951C551.039 234.505 593.914 241.787 629.16 266.804C652.62 283.556 667.607 307.633 674.12 339.035C677.799 356.579 676.929 374.268 671.604 392.163Z" fill="#F8F6F1" />
</svg>