<svg width="1077" height="1058" viewBox="0 0 1077 1058" fill="none" xmlns="http://www.w3.org/2000/svg">
<path d="M554.245 537.661C541.105 534.14 528.767 534.344 517.308 538.338C495.619 545.871 481.501 561.851 474.956 586.279C470.269 603.77 471.473 620.301 478.632 635.979C485.747 651.646 499.074 662.051 518.547 667.268C538.02 672.486 555.253 670.039 570.19 659.958C585.128 649.877 594.979 636.032 599.689 618.455C604.399 600.877 602.913 584.364 595.298 568.84C587.671 553.359 574.02 542.96 554.245 537.661Z" fill="#F8F6F1"/>
<path d="M898.8 690.148C1023.57 620.008 1013.74 437.292 882.202 380.897L800.726 345.998C795.753 343.88 792.149 339.405 791.07 334.129L773.631 247.218C745.482 106.875 568.646 59.7693 474.407 167.457L416.041 234.149C412.457 238.221 407.142 240.306 401.776 239.653L313.709 229.354C171.543 212.779 72.0747 366.349 145.383 489.286L190.776 565.448C193.543 570.114 193.858 575.832 191.579 580.717L154.618 661.27C94.9269 791.329 210.248 933.42 349.797 901.687L436.236 882.044C441.504 880.823 447.062 882.312 451.014 886.003L516.183 946.085C621.434 1043.04 792.185 977.235 805.152 834.749L813.161 746.438C813.642 741.026 816.774 736.231 821.503 733.574L898.8 690.148ZM726.223 707.628C711.572 723.188 694.414 735.352 674.717 744.066C655.02 752.779 633.098 758.08 608.951 759.967C584.803 761.854 559.38 759.198 532.712 752.052C506.044 744.907 481.18 732.75 458.153 715.636C438.631 701.124 423.906 684.388 413.511 665.626C395.839 691.597 362.935 702.728 333.088 692.283L288.581 680.543L293.818 663.753C293.744 663.687 293.735 663.546 293.661 663.48L371.574 414.923L371.701 414.449L391.685 350.726L401.012 315.915C462.86 323.945 501.188 329.967 516.008 333.938C530.828 337.909 542.293 341.997 550.444 346.213L543.174 371.277C541.177 378.73 535.643 396.456 526.57 424.455C517.498 452.454 512.247 468.778 510.828 473.385C527.818 467.363 546.798 463.906 567.727 463.003C588.655 462.1 608.463 464.175 627.16 469.185C684.115 484.446 724.191 513.932 747.344 557.63C762.703 586.819 765.632 619.142 756.132 654.598C750.865 674.427 740.874 692.068 726.223 707.628Z" fill="#F8F6F1"/>
</svg>
