<svg width="64" height="64" viewBox="0 0 64 64" fill="none" xmlns="http://www.w3.org/2000/svg">
<path d="M61.1567 31.3745C67.2492 23.1219 61.2177 11.4789 50.947 11.6713L44.5873 11.7929C44.1991 11.8001 43.8297 11.614 43.6028 11.299L39.9007 6.13788C33.9167 -2.19441 20.9607 -0.0674953 17.9687 9.7403L16.1163 15.8141C16.0042 16.1837 15.7128 16.4781 15.3425 16.5953L9.2796 18.5146C-0.510515 21.6186 -2.48755 34.5752 5.93524 40.4441L11.1517 44.0806C11.47 44.2998 11.661 44.664 11.6574 45.0505L11.6126 51.4026C11.5453 61.6498 23.2838 67.5295 31.477 61.3518L36.5528 57.5248C36.8648 57.2895 37.271 57.2259 37.6377 57.3476L43.6755 59.3484C53.4216 62.5813 62.6532 53.2575 59.2972 43.5705L57.2152 37.571C57.0906 37.2023 57.1516 36.7988 57.382 36.4865L61.1567 31.3745Z" fill="#00A9A4"/>
</svg>
