<svg width="213" height="32" viewBox="0 0 213 32" fill="none" xmlns="http://www.w3.org/2000/svg">
<path d="M202.77 14.3264C202.682 15.0208 202.593 16.8589 202.416 19.9223C202.284 22.9857 202.195 24.742 202.195 25.1504C203.39 25.2321 205.646 25.2322 208.964 25.1913L209.45 14.2039C209.096 14.1631 208.344 14.1631 207.238 14.1631C206.132 14.1631 204.628 14.2039 202.77 14.3264Z" fill="#00A9A4"/>
<path d="M211.401 7.79173C212.683 6.64807 211.976 4.64668 210.206 4.4016L209.1 4.23821C209.012 4.23821 208.967 4.19735 208.923 4.11566L208.437 3.21708C207.64 1.74665 205.34 1.74665 204.544 3.21708L204.057 4.11566C204.013 4.1565 203.969 4.19737 203.924 4.23821L202.818 4.4016C201.049 4.64668 200.341 6.64807 201.624 7.79173L202.42 8.48613C202.465 8.52698 202.509 8.60868 202.465 8.64952L202.288 9.67066C201.978 11.3045 203.836 12.5298 205.428 11.7538L206.402 11.2636C206.446 11.2227 206.534 11.2227 206.579 11.2636L207.552 11.7538C209.144 12.5298 211.002 11.2636 210.693 9.62977L210.516 8.60864C210.516 8.52695 210.516 8.48614 210.56 8.4453L211.401 7.79173ZM207.817 8.4453C207.508 8.77206 207.065 8.97626 206.534 8.97626C206.004 8.97626 205.561 8.8129 205.252 8.48613C204.942 8.15937 204.809 7.75091 204.809 7.30161C204.809 6.68893 205.075 6.19879 205.561 5.87202C205.827 5.70864 206.136 5.62696 206.534 5.62696C207.109 5.62696 207.508 5.79032 207.817 6.11709C208.127 6.44385 208.26 6.85231 208.26 7.30161C208.304 7.71006 208.127 8.11854 207.817 8.4453Z" fill="#00A9A4"/>
<path d="M0 25.437C0.132712 24.5792 0.398137 22.5778 0.663562 19.3919C0.973224 16.2059 1.19441 13.0609 1.32712 9.95661C6.19324 9.589 10.1746 9.38477 13.2712 9.38477C17.1199 9.38477 19.9953 10.2017 21.8533 11.8763C23.1804 13.0608 23.844 14.6947 23.844 16.6961C23.844 19.7595 22.915 21.9243 21.0128 23.2313C19.7299 24.1299 17.8277 24.7018 15.3504 24.9877C12.8731 25.2736 9.42258 25.3961 4.9546 25.3961H0V25.437ZM9.42257 13.6735L9.02444 21.2707C11.1036 21.2299 12.5192 21.0665 13.3597 20.7806C14.908 20.2088 15.6601 19.1059 15.6601 17.3904C15.6601 16.0017 15.2619 14.9806 14.5099 14.4088C13.7136 13.8369 12.8731 13.551 11.9441 13.551C11.369 13.5919 10.4843 13.6327 9.42257 13.6735Z" fill="#765E95"/>
<path d="M24.9062 19.8822C24.9062 15.7159 28.1798 13.6328 34.7712 13.6328C37.2043 13.6328 39.2392 14.1638 40.876 15.185C41.6722 15.6751 42.2473 16.2878 42.6897 17.023C43.1321 17.7582 43.3533 18.5342 43.3533 19.392C43.3533 21.5568 42.557 23.1497 40.9645 24.13C39.3719 25.1103 37.0715 25.6005 33.9749 25.6005C27.9586 25.6005 24.9062 23.6808 24.9062 19.8822ZM36.2753 21.761C36.7619 21.1892 36.9831 20.4948 36.9831 19.6371C36.9831 18.7793 36.7177 18.0849 36.231 17.5948C35.7002 17.1046 35.0366 16.8188 34.1076 16.8188C33.2229 16.8188 32.5151 17.1047 32.0727 17.7173C31.6303 18.2892 31.4092 18.9835 31.4092 19.8004C31.4092 21.7202 32.3382 22.6596 34.1519 22.6596C35.0809 22.6188 35.7887 22.3329 36.2753 21.761Z" fill="#765E95"/>
<path d="M45.1662 9.62965L52.0672 9.34375C51.9345 11.7536 51.8018 14.6536 51.6691 18.1255C51.5364 21.5565 51.4479 23.9255 51.4037 25.2326L44.5469 25.396L44.9008 15.1846C45.0777 11.8762 45.1662 10.0381 45.1662 9.62965Z" fill="#765E95"/>
<path d="M65.4747 17.4314C61.9799 17.4314 60.2104 18.1258 60.2104 19.5554C60.2104 20.3314 60.5643 20.9033 61.2721 21.3117C61.9799 21.7202 62.9974 21.9244 64.3688 21.9244C65.7401 21.9244 67.023 21.8427 68.3501 21.6385C68.3501 21.6385 68.4386 24.0892 67.4654 24.8653C66.8903 25.3146 65.342 25.6005 63.5725 25.6005C61.803 25.6005 60.3432 25.478 59.1487 25.2329C57.9543 24.9878 57.0253 24.7019 56.3618 24.416C55.6982 24.1301 55.0789 23.7625 54.5923 23.354C53.4863 22.4963 52.9113 21.3526 52.9555 19.8822C52.9555 18.9836 53.1324 18.1666 53.5306 17.4723C54.2384 16.1652 55.477 15.185 57.2023 14.5723C58.9718 13.9596 60.874 13.6328 62.9974 13.6328C65.1208 13.6328 67.1115 13.837 69.0137 14.2863L68.704 17.7582C67.4654 17.5131 66.4037 17.4314 65.4747 17.4314Z" fill="#765E95"/>
<path d="M83.2116 25.1919C81.9729 25.4369 80.7785 25.5594 79.5841 25.5594C78.4339 25.5594 77.4165 25.5186 76.6202 25.3961C75.8239 25.3144 74.9834 25.1102 74.1871 24.8651C73.3909 24.62 72.7273 24.2524 72.1522 23.844C71.5771 23.4355 71.1348 22.9045 70.7809 22.251C70.427 21.5975 70.25 20.8214 70.25 19.9228C70.25 19.0242 70.427 18.1664 70.7809 17.3904C71.1348 16.6143 71.6214 16.0016 72.1965 15.5523C73.789 14.2453 76.0893 13.5918 79.0975 13.5918C80.5131 13.5918 81.8845 13.8369 83.1673 14.3679C84.4502 14.8989 85.3792 15.6749 85.9101 16.696C86.2197 17.2679 86.3967 17.9214 86.3967 18.6157L86.264 20.4129L76.7529 20.3721C76.9299 21.0256 77.4165 21.5566 78.1243 21.9242C78.8321 22.2919 79.8495 22.496 81.0882 22.496C82.3268 22.496 83.9636 22.251 85.2907 21.8425C85.7773 21.72 86.1313 21.5158 86.1313 21.5158C86.1313 21.5158 85.9543 23.1496 85.3792 23.9665C85.0253 24.4567 84.4502 24.9468 83.2116 25.1919ZM81.1767 18.4115C81.1767 17.7171 80.9997 17.2678 80.6458 16.9819C80.2919 16.696 79.8495 16.5735 79.186 16.5735C78.5666 16.5735 78.0358 16.7369 77.6377 17.1045C77.2395 17.4721 77.0183 17.8805 76.9299 18.4115H81.1767Z" fill="#765E95"/>
<path d="M130.101 24.9057C129.172 25.355 128.11 25.6001 126.96 25.6001C125.81 25.6001 124.837 25.4776 123.952 25.2734C123.112 25.0691 122.315 24.7424 121.608 24.2931C120.9 23.8438 120.325 23.272 119.882 22.5367C119.44 21.8015 119.219 20.9438 119.219 19.9635C119.219 18.9832 119.396 18.0846 119.794 17.2677C120.192 16.4508 120.723 15.7564 121.386 15.2663C122.758 14.2043 124.439 13.6325 126.429 13.6325C127.801 13.6325 128.907 13.7958 129.792 14.1226C130.676 14.4493 131.428 15.0212 132.092 15.8381L132.136 13.5508L137.445 13.9592L137.4 25.1917C137.4 25.1917 134.348 25.3142 133.109 24.6607C132.357 24.2522 132.313 23.1494 132.313 23.1494C131.738 23.8438 131.03 24.4156 130.101 24.9057ZM126.783 18.0846C126.341 18.5747 126.12 19.1465 126.12 19.8409C126.12 20.4944 126.341 21.1071 126.783 21.5973C127.226 22.0874 127.845 22.3325 128.686 22.3325C129.526 22.3325 130.145 22.1283 130.632 21.679C131.074 21.2297 131.296 20.6579 131.296 19.8818C131.296 19.1057 131.074 18.4931 130.588 18.0438C130.145 17.5945 129.482 17.3494 128.686 17.3494C127.845 17.3494 127.226 17.5945 126.783 18.0846Z" fill="#00A9A4"/>
<path d="M161.686 19.8014C161.686 18.0042 161.022 17.1056 159.651 17.1056C158.943 17.1056 158.412 17.269 158.103 17.5958C157.527 18.2493 157.218 19.638 157.218 21.6803V25.0705L150.228 25.2747V24.417L150.361 19.4747C150.361 18.4944 150.184 17.8 149.874 17.4324C149.565 17.0648 148.99 16.8606 148.238 16.8606C147.486 16.8606 146.91 17.1056 146.557 17.5958C146.07 18.2493 145.849 19.5563 145.849 21.4761L145.893 25.2747L138.727 25.3155L138.815 24.1719C138.904 22.3339 138.948 20.2507 139.036 17.9634C139.08 15.676 139.125 14.4915 139.125 14.4915C139.125 14.4915 140.806 14.2056 142.133 14.5324C143.593 14.8591 144.212 16.2887 144.212 16.2887C145.495 14.4915 147.618 13.6338 150.582 13.6338C151.865 13.6338 152.927 13.838 153.723 14.2056C154.519 14.5732 155.271 15.1859 155.891 16.0028C157.262 14.4099 159.385 13.6338 162.172 13.6338C164.296 13.6338 165.977 14.1648 167.127 15.1859C168.277 16.2479 168.897 17.6366 168.897 19.3521L168.675 25.193L161.686 25.3155V19.8014Z" fill="#912C87"/>
<path d="M119.444 15.9186C122.718 11.8341 119.489 6.07492 114.003 6.15661L110.597 6.19749C110.376 6.19749 110.199 6.11576 110.066 5.95238L108.075 3.42C104.89 -0.705379 97.9449 0.356609 96.3523 5.2172L95.3791 8.23976C95.3349 8.40314 95.1579 8.56648 94.981 8.60733L91.7516 9.54679C86.5316 11.0989 85.4699 17.4708 89.9821 20.4116L92.7691 22.2088C92.9461 22.3314 93.0345 22.4947 93.0345 22.699L92.9903 25.8441C92.9461 30.9089 99.2278 33.8089 103.607 30.7455L106.306 28.8666C106.483 28.7441 106.704 28.7032 106.881 28.7849L110.11 29.7652C115.33 31.3582 120.241 26.7427 118.471 21.9638L117.365 18.982C117.277 18.8187 117.321 18.6145 117.454 18.4511L119.444 15.9186Z" fill="#EA570D"/>
<path d="M103.294 9.62931L103.25 10.6913C103.25 11.0181 103.205 11.7533 103.161 12.9378C103.073 14.1223 103.073 14.8167 103.028 15.0209C103.692 14.6125 104.444 14.2857 105.285 14.0406C106.169 13.7956 107.01 13.673 107.85 13.673C110.416 13.673 112.451 14.4082 113.911 15.8378C114.884 16.8181 115.371 18.0435 115.371 19.5139C115.371 20.3308 115.15 21.1068 114.707 21.8829C114.265 22.659 113.69 23.2717 112.938 23.8435C112.186 24.3745 111.345 24.8238 110.328 25.1505C109.31 25.4773 108.248 25.6407 107.01 25.6407C105.815 25.6407 104.621 25.4365 103.471 24.9872C102.321 24.5787 101.392 23.966 100.684 23.19V23.1491C100.64 23.2308 100.197 24.6604 99.3125 25.0689C98.4278 25.5181 96.9237 25.3956 96.5256 25.3956C96.2159 25.3956 95.9062 25.3547 95.9062 25.3547L96.5256 11.5082V10.0787C99.2241 9.75189 100.905 9.58848 101.569 9.58848C102.365 9.50679 102.896 9.54762 103.294 9.62931ZM105.55 22.4547C106.435 22.4547 107.143 22.1688 107.629 21.6378C108.16 21.1068 108.381 20.4533 108.381 19.7181C108.381 18.9829 108.116 18.3702 107.629 17.8393C107.143 17.3083 106.435 17.0632 105.55 17.0632C104.975 17.0632 104.444 17.1857 104.002 17.4716C103.161 18.0026 102.763 18.7787 102.763 19.759C102.763 20.4942 102.984 21.1068 103.471 21.6378C104.002 22.1688 104.665 22.4547 105.55 22.4547Z" fill="white"/>
<path d="M199.998 14.6945C203.183 10.6917 200.042 5.09589 194.689 5.17758L191.372 5.21841C191.15 5.21841 190.973 5.13673 190.841 4.97335L188.894 2.48175C185.753 -1.52109 179.029 -0.499937 177.437 4.23812L176.464 7.17896C176.419 7.34234 176.242 7.50573 176.065 7.54658L172.88 8.48604C167.793 9.99731 166.731 16.2467 171.155 19.065L173.898 20.8213C174.075 20.9438 174.163 21.1072 174.163 21.2706L174.119 24.334C174.075 29.2763 180.224 32.1354 184.47 29.1537L187.125 27.3157C187.302 27.1932 187.479 27.1523 187.7 27.234L190.841 28.2143C195.928 29.7664 200.75 25.2734 198.98 20.6171L197.874 17.7171C197.83 17.5537 197.83 17.3494 197.963 17.1861L199.998 14.6945Z" fill="#EA570D"/>
<path d="M184.206 8.56769L184.161 9.58882C184.161 9.87474 184.117 10.61 184.073 11.7536C184.029 12.8973 183.984 13.5917 183.984 13.7551C184.604 13.3466 185.356 13.0198 186.196 12.7748C187.037 12.5297 187.877 12.4072 188.718 12.4072C191.239 12.4072 193.186 13.1015 194.646 14.5311C195.619 15.4705 196.061 16.6959 196.061 18.1255C196.061 18.9424 195.84 19.6776 195.398 20.4537C194.955 21.1889 194.38 21.8424 193.672 22.3734C192.965 22.9044 192.124 23.3128 191.151 23.6396C190.178 23.9664 189.116 24.1297 187.922 24.1297C186.771 24.1297 185.577 23.9255 184.471 23.5171C183.321 23.1086 182.436 22.496 181.773 21.7607V21.7199C181.728 21.8016 181.286 23.1903 180.445 23.5988C179.561 24.0481 178.101 23.8847 177.747 23.8847C177.437 23.8847 177.172 23.8438 177.172 23.8438L177.791 10.3241V8.89447C180.401 8.56771 182.082 8.4043 182.702 8.4043C183.321 8.44514 183.808 8.486 184.206 8.56769ZM186.418 21.0663C187.258 21.0663 187.966 20.7804 188.452 20.2494C188.939 19.7184 189.204 19.1058 189.204 18.3706C189.204 17.6762 188.983 17.0635 188.497 16.5325C188.01 16.0424 187.346 15.7565 186.462 15.7565C185.887 15.7565 185.4 15.879 184.958 16.1649C184.161 16.655 183.763 17.4311 183.763 18.4114C183.763 19.1058 183.984 19.7184 184.471 20.2494C184.913 20.8213 185.577 21.0663 186.418 21.0663Z" fill="white"/>
</svg>
