<svg width="1414" height="838" viewBox="0 0 1414 838" fill="none" xmlns="http://www.w3.org/2000/svg">
<path d="M1231.76 566.166C1202.12 574.582 1189.31 585.195 1192.97 598.186C1194.98 605.138 1199.38 609.713 1206.33 611.908C1213.28 614.104 1222.61 613.555 1233.96 610.262C1245.48 606.968 1256.28 602.943 1266.71 598.002C1266.71 598.002 1273.84 620.142 1267.62 629.474C1263.96 634.963 1251.34 641.366 1236.7 645.575C1221.88 649.783 1209.26 652.162 1198.46 652.711C1187.85 653.26 1179.25 652.894 1172.66 651.796C1166.26 650.698 1160.22 648.868 1154.91 646.307C1143.39 641.001 1135.7 631.852 1132.04 618.495C1129.66 610.262 1129.3 602.394 1130.58 594.892C1133.14 581.169 1141.01 569.276 1154.18 559.579C1167.36 549.698 1182.91 542.379 1200.66 537.256C1218.4 532.316 1235.97 529.389 1252.99 528.84L1259.57 561.408C1248.96 562.323 1239.81 563.787 1231.76 566.166Z" fill="#912C87"/>
<path d="M1003.1 453.638C1009.87 460.042 1018.1 464.616 1027.8 467.361C1037.49 470.105 1046.09 471.386 1053.96 471.386C1061.65 471.386 1069.15 470.288 1076.47 467.91C1083.6 465.714 1090.01 461.689 1095.68 455.834C1101.17 450.162 1105.19 442.843 1107.76 433.877C1110.32 424.912 1110.87 416.129 1109.59 407.712C1108.3 399.296 1105.56 391.794 1101.17 385.39C1092.2 372.216 1079.4 363.434 1062.74 358.677C1051.22 355.566 1041.34 354.285 1033.1 355.2C1024.87 356.115 1017 359.591 1009.32 365.446L1014.99 344.222L969.064 335.622L940.886 438.817C940.886 438.817 966.319 446.868 978.761 444.124C986.263 442.294 989.557 432.047 989.557 432.047C991.752 440.098 996.326 447.234 1003.1 453.638ZM1048.66 398.93C1051.22 404.419 1051.77 410.274 1049.94 416.495C1048.29 422.716 1044.81 427.473 1039.87 430.95C1034.93 434.426 1028.9 435.158 1021.76 433.328C1014.81 431.315 1009.87 427.839 1007.12 422.899C1004.38 417.776 1004.01 411.738 1005.84 404.785C1007.85 397.832 1011.33 392.709 1016.27 389.598C1021.39 386.488 1027.25 385.939 1034.2 387.769C1041.34 389.598 1046.09 393.258 1048.66 398.93Z" fill="#EA570D"/>
<path d="M61.8451 103.961C59.9834 104.838 58.6692 106.043 57.6836 107.577C55.9314 110.534 55.9314 113.711 57.4646 117.107C58.6692 119.517 60.3119 121.27 62.7212 122.366C65.021 123.461 67.5397 123.352 70.2775 122.037C73.0154 120.723 74.6581 118.751 75.4246 116.231C76.1912 113.602 75.9722 111.082 74.7676 108.672C73.5629 106.262 71.8107 104.509 69.511 103.523C67.2112 102.427 64.5829 102.647 61.8451 103.961ZM102.912 79.8604C106.526 61.456 87.3615 46.8856 70.6061 55.321L60.2024 60.4701C59.5453 60.7987 58.7787 60.7987 58.2312 60.4701L48.0465 54.8829C31.6197 45.7902 11.9075 59.4839 14.6453 78.1074L16.3975 89.6102C16.507 90.2675 16.288 91.0343 15.7404 91.4725L7.19844 99.3603C-6.4906 112.178 0.408658 135.183 18.9162 138.251L30.415 140.222C31.0721 140.332 31.7292 140.77 32.0577 141.427L36.9858 151.944C44.9802 168.925 68.9634 169.472 77.6149 152.821L82.981 142.523C83.3095 141.866 83.9666 141.427 84.6237 141.427L96.1225 140.003C114.74 137.703 122.624 115.026 109.483 101.661L101.379 93.3351C100.832 92.7873 100.612 92.13 100.832 91.3631L102.912 79.8604ZM97.7652 106.59C97.6556 109.767 96.7795 112.835 95.4654 115.683C94.0417 118.531 92.0705 121.27 89.5517 123.79C87.0329 126.309 83.8571 128.501 80.1337 130.253C76.4102 132.006 72.4678 132.992 68.1968 133.321C63.9258 133.649 60.0929 132.992 56.698 131.349L56.5885 131.239C56.5885 131.568 57.4646 136.936 55.4934 139.674C53.5221 142.523 48.5941 144.276 47.3895 144.824C46.4038 145.262 45.4183 145.59 45.4183 145.59L25.268 98.3742L22.9682 93.5541C30.7436 88.5148 35.6716 85.4474 37.7524 84.4614C39.8331 83.4755 41.4758 82.8181 42.79 82.4894L44.4326 85.995C44.8707 86.9809 45.9658 89.6101 47.718 93.6635C49.3607 97.7168 50.3463 100.127 50.6748 100.784C51.989 98.4837 53.8507 96.1833 56.1504 94.1019C58.4502 92.0204 60.8595 90.2675 63.4878 89.0624C71.3727 85.3377 78.8195 84.7901 85.6093 87.5289C90.2088 89.3912 93.6037 92.6778 96.0129 97.7171C97.3271 100.456 97.9842 103.413 97.7652 106.59Z" fill="#912C87"/>
<path d="M910.702 307.445L916.74 304.335C917.106 304.152 917.472 304.152 917.838 304.335L923.876 307.445C933.574 312.569 944.735 304.335 942.905 293.723L941.807 287.135C941.807 286.77 941.807 286.403 942.173 286.037L946.931 281.281C954.798 273.779 950.407 260.422 939.612 258.958L933.025 258.043C932.659 258.043 932.293 257.677 932.11 257.311L929.182 251.273C924.425 241.576 910.519 241.576 905.579 251.273L902.652 257.311C902.469 257.677 902.103 257.86 901.737 258.043L895.15 258.958C884.355 260.422 880.146 273.779 887.831 281.281L892.588 286.037C892.954 286.403 892.954 286.77 892.954 287.135L891.856 293.723C889.844 304.335 901.188 312.386 910.702 307.445Z" fill="#F6A300"/>
<path d="M1174.82 747.514C1173.58 738.263 1168.36 730.427 1159.25 724.008C1156.21 721.931 1152.89 720.232 1149.09 719.005C1145.29 717.778 1141.68 717.117 1138.26 717.117C1138.83 716.362 1140.83 713.813 1144.34 709.471C1147.76 705.128 1149.94 702.296 1150.8 701.163L1153.74 697.199C1152.6 695.877 1150.8 694.461 1148.42 692.762C1146.05 691.063 1139.59 687.475 1129.15 682L1125.16 687.57L1117.38 697.576L1117.28 697.671L1086.99 736.563C1086.99 736.563 1086.99 736.564 1086.99 736.658L1085 739.301L1092.12 744.304C1096.77 748.08 1103.32 748.269 1108.17 744.871C1108.83 748.835 1110.26 752.8 1112.82 756.671C1115.76 761.202 1119.47 764.978 1123.74 767.999C1128.01 771.02 1132.38 773.096 1136.75 774.418C1141.21 775.645 1145.39 776.211 1149.47 775.928C1153.55 775.645 1157.44 774.607 1161.05 772.813C1164.66 771.02 1167.6 768.565 1169.88 765.355C1173.96 759.597 1175.58 753.744 1174.82 747.514ZM1136.46 754.027C1133.14 754.877 1129.91 754.122 1126.78 751.951C1123.64 749.779 1121.93 747.042 1121.74 743.832C1121.46 740.623 1122.41 737.602 1124.4 734.77C1127.16 730.899 1130.76 729.011 1135.13 729.011C1137.41 729.011 1139.59 729.861 1141.78 731.277C1144.91 733.543 1146.71 736.28 1147 739.49C1147.38 742.7 1146.52 745.72 1144.53 748.552C1142.44 751.384 1139.78 753.272 1136.46 754.027Z" fill="#00A9A4"/>
<path d="M1386.19 782.253C1375.21 784.632 1364.78 785.913 1354.35 785.913C1344.11 785.913 1335.32 785.364 1328.19 784.449C1321.05 783.534 1313.92 781.704 1306.96 779.325C1300.01 776.764 1293.97 773.653 1289.03 769.811C1284.09 765.969 1280.07 760.845 1276.96 754.624C1273.85 748.403 1272.38 740.902 1272.38 732.302C1272.38 723.702 1274.03 715.652 1277.14 708.333C1280.25 701.014 1284.46 695.159 1289.4 690.768C1303.3 678.326 1323.43 672.104 1349.96 672.104C1362.59 672.104 1374.48 674.483 1385.82 679.241C1397.17 684.181 1405.22 691.683 1409.98 701.563C1412.72 707.052 1414 713.273 1414 720.043L1412.72 737.059L1329.29 736.693C1330.93 742.914 1334.96 747.854 1341.36 751.331C1347.77 754.99 1356.37 756.637 1367.34 756.637C1378.32 756.637 1392.59 754.076 1404.3 750.599C1408.51 749.318 1411.81 747.489 1411.81 747.489C1411.81 747.489 1410.34 763.224 1405.22 770.726C1402.29 775.117 1397.17 779.875 1386.19 782.253ZM1368.63 717.847C1368.63 711.443 1366.98 706.869 1364.23 704.124C1361.31 701.38 1357.1 700.099 1351.43 700.099C1345.75 700.099 1341.36 701.746 1337.89 705.039C1334.41 708.333 1332.4 712.541 1331.48 717.481L1368.63 717.847Z" fill="#00A9A4"/>
<path d="M937.602 778.054C939.545 775.785 943.9 770.111 950.533 761.1C957.233 752.089 963.532 743.011 969.562 734C983.699 741.009 995.157 747.149 1003.73 752.356C1014.45 758.831 1020.82 766.106 1022.96 774.249C1024.44 780.056 1023.37 785.997 1019.68 792.071C1014.12 801.216 1007.49 806.155 999.847 806.89C994.621 807.424 988.323 806.022 981.019 802.684C973.649 799.347 963.8 793.94 951.404 786.398L937.602 778.054ZM985.107 758.63L970.098 780.791C975.86 784.195 980.148 786.131 983.029 786.598C988.323 787.532 992.544 785.463 995.626 780.324C998.172 776.118 998.909 772.514 997.77 769.443C996.631 766.44 994.822 764.104 992.276 762.568C990.668 761.634 988.256 760.299 985.107 758.63Z" fill="#EA570D"/>
<path d="M201.723 341.284C195.933 343.675 179.801 349.167 153.201 357.986C126.601 366.805 111.427 371.647 107.728 372.688C104.473 363.15 99.1403 344.883 91.9064 317.837L187.458 286.565C188.477 289.509 190.339 295.448 192.868 304.43C195.573 313.363 198.466 325.664 201.723 341.284Z" fill="#F6A300"/>
<path d="M673.89 826.844C677.853 816.623 676.34 810.033 669.296 807.341C665.475 805.821 662.421 805.749 660.134 807.125C655.647 809.726 650.975 816.829 646.536 828.576L639.064 847.877L602.013 834.655L603.967 829.679L615.345 801.827C617.494 796.163 618.128 791.923 617.247 789.106C616.365 786.29 613.896 784.153 609.925 782.546C605.954 780.939 602.492 781.23 599.625 783.271C595.705 786.102 591.591 792.928 587.465 803.955L579.235 825.622L541.717 811.125L544.597 804.884C549.031 794.538 553.888 782.933 559.284 770.04C564.649 757.027 567.347 750.58 567.315 750.462L573.419 752.006C582.35 754.192 588.95 761.836 589.887 770.998C600.658 763.533 613.627 762.856 628.998 768.786C635.774 771.422 640.812 774.652 644.23 778.442C647.648 782.232 650.109 787.17 651.581 793.135C662.315 786.952 674.908 786.757 689.594 792.489C700.758 796.875 708.284 803.254 712.139 811.507C716.026 819.878 716.042 828.905 712.251 838.824L698.298 871.691L661.624 857.987L673.89 826.844Z" fill="#F6A300"/>
<path d="M1258.44 24.2241C1255.96 25.2081 1249.08 27.4544 1237.73 31.0581C1226.38 34.6618 1219.91 36.6374 1218.33 37.06C1217 32.9972 1214.83 25.2208 1211.91 13.7105L1252.76 0.918173C1253.17 2.1725 1253.93 4.70123 1254.96 8.52457C1255.9 12.368 1257.14 17.5812 1258.44 24.2241Z" fill="#EA570D"/>
<path d="M66.7961 781.445L72.8341 778.335C73.2001 778.152 73.566 778.152 73.932 778.335L79.97 781.445C89.6674 786.569 100.829 778.335 98.999 767.723L97.9011 761.135C97.9011 760.77 97.9011 760.403 98.267 760.037L103.024 755.281C110.892 747.779 106.501 734.422 95.7055 732.958L89.1185 732.043C88.7526 732.043 88.3866 731.677 88.2037 731.311L85.2762 725.273C80.5189 715.576 66.6131 715.576 61.6729 725.273L58.7454 731.311C58.5625 731.677 58.1965 731.86 57.8306 732.043L51.2436 732.958C40.4484 734.422 36.2401 747.779 43.9248 755.281L48.6821 760.037C49.048 760.403 49.048 760.77 49.048 761.135L47.9501 767.723C45.9375 778.335 57.0987 786.569 66.7961 781.445Z" fill="#00A9A4"/>
</svg>
