<svg width="262" height="431" viewBox="0 0 262 431" fill="none" xmlns="http://www.w3.org/2000/svg">
  <path d="M227.502 215.744C221.873 216.911 217.254 219.331 213.686 223.015C206.928 229.979 204.634 238.693 206.802 249.159C208.355 256.653 211.949 262.665 217.629 267.224C223.291 271.788 230.299 273.185 238.642 271.456C246.985 269.728 253.026 265.531 256.751 258.888C260.475 252.244 261.565 245.146 260.005 237.616C258.444 230.085 254.747 224.133 248.924 219.718C243.104 215.322 235.975 213.989 227.502 215.744Z" fill="#E6E6E6" fill-opacity="0.22" />
  <path d="M386.549 207.872C420.331 157.694 381.919 90.5772 321.546 94.27L284.157 96.5691C281.877 96.7143 279.667 95.7092 278.257 93.9223L255.166 64.4222C217.884 16.7838 142.174 32.5862 127.049 91.1414L117.68 127.406C117.1 129.624 115.49 131.421 113.34 132.193L78.1351 145.032C21.314 165.776 12.9286 242.647 63.9552 275.137L95.5581 295.269C97.489 296.505 98.6939 298.604 98.7614 300.881L100.107 338.313C102.273 398.753 172.799 430.494 219.457 392.009L248.361 368.175C250.118 366.714 252.499 366.221 254.692 366.864L290.707 377.169C348.859 393.784 400.825 336.508 378.658 280.251L364.908 245.389C364.062 243.254 364.334 240.849 365.614 238.948L386.549 207.872ZM324.715 247.249C322.139 255.906 317.971 263.758 312.19 270.788C306.408 277.819 299.139 283.984 290.381 289.283C281.622 294.582 271.52 298.408 260.094 300.775C248.669 303.142 236.973 303.275 225.029 301.187C214.902 299.416 206.164 295.895 198.676 290.786C196.937 303.947 186.629 314.399 173.376 316.125L154.343 320.145L153.132 312.812C153.091 312.801 153.061 312.75 153.02 312.739L135.227 204.101L135.185 203.898L130.626 176.044L127.536 161.13C152.411 152.415 168.025 147.409 174.375 146.093C180.724 144.777 185.829 144.143 189.707 144.187L191.723 155.03C192.385 158.224 193.662 165.967 195.554 178.261C197.447 190.554 198.565 197.715 198.904 199.723C204.175 194.223 210.684 189.313 218.414 184.997C226.144 180.681 234.016 177.703 242.027 176.043C266.428 170.987 287.158 174.507 304.199 186.607C315.542 194.71 322.787 206.357 325.934 221.548C327.712 230.034 327.291 238.592 324.715 247.249Z" fill="#E6E6E6" fill-opacity="0.22" />
</svg>