<svg width="809" height="185" viewBox="0 0 809 185" fill="none" xmlns="http://www.w3.org/2000/svg">
  <path d="M71.8534 78.2393H49.0749V23.5707H23.3254V78.2393H0.546875V2.37695H71.8534V78.2393Z" fill="white" />
  <path d="M84.7344 40.2081C84.7344 17.6277 102.759 0.197266 124.943 0.197266C147.326 0.197266 165.152 17.6277 165.152 40.2081C165.152 62.7885 147.326 80.2194 124.943 80.2194C102.759 80.4174 84.7344 62.9865 84.7344 40.2081ZM142.374 40.2081C142.374 29.5121 134.847 22.3814 124.943 22.3814C115.04 22.3814 107.513 29.5121 107.513 40.2081C107.513 50.904 115.04 58.0347 124.943 58.0347C134.847 58.2328 142.374 51.1021 142.374 40.2081Z" fill="white" />
  <path d="M254.871 57.045V98.6405H232.686V78.2393H190.497V98.6405H168.312V57.045H177.82C181.583 51.1028 183.96 43.7745 183.96 30.7016V2.37695H245.165V57.045H254.871ZM222.783 57.045V22.5804H205.947V30.7016C205.947 41.7937 204.362 50.1124 201.589 57.045H222.783Z" fill="white" />
  <path d="M319.443 24.1651H289.138V78.2393H266.359V2.37695H319.443V24.1651Z" fill="white" />
  <path d="M404.426 2.37695L378.478 76.0603C369.961 100.225 354.907 109.733 335.1 108.742V87.5487C345.202 87.5487 350.154 85.1717 353.719 77.0507L324.008 2.37695H348.371L365.999 48.9243L380.261 2.37695H404.426Z" fill="white" />
  <path d="M468.602 57.6392C468.602 70.3159 457.708 80.4177 437.109 80.4177C421.857 80.4177 411.161 74.6738 405.219 62.3932L423.64 51.4992C425.818 57.4414 430.572 60.8085 437.505 60.8085C443.051 60.8085 446.418 58.6297 446.418 54.8663C446.418 51.4991 444.239 49.5184 439.287 49.5184H428.591V30.3049H436.713C441.664 30.3049 443.843 28.5225 443.843 25.1553C443.843 21.5899 440.872 19.6091 436.713 19.6091C430.968 19.6091 427.007 22.3819 424.234 28.3242L405.813 17.8266C412.151 5.54607 423.045 0 436.118 0C454.737 0 465.235 10.696 465.235 22.7785C465.235 29.7111 462.66 35.6531 457.114 39.4165C464.641 43.576 468.602 49.9143 468.602 57.6392Z" fill="white" />
  <path d="M551.4 2.37695V78.2393H528.622V50.905H502.872V78.2393H480.094V2.37695H502.872V29.7112H528.622V2.37695H551.4Z" fill="white" />
  <path d="M639.541 2.37695V78.2393H617.357V40.2087L584.873 78.2393H568.234V2.37695H590.419V40.407L622.903 2.37695H639.541Z" fill="white" />
  <path d="M703.313 78.2393L678.95 44.7645V78.2393H656.172V2.37695H678.95V35.6534L701.729 2.37695H728.271L700.54 40.407L728.865 78.4371H703.313V78.2393Z" fill="white" />
  <path d="M808.892 2.37695V78.2393H786.708V40.2087L754.224 78.2393H737.586V2.37695H759.77V40.407L792.254 2.37695H808.892Z" fill="white" />
  <path d="M59.4221 156.477V185H44.1704V171.135H15.2517V185H0V156.477H6.53641C9.11137 152.516 10.696 147.366 10.696 138.452V119.041H52.6876V156.477H59.4221ZM37.436 156.477V132.906H25.9476V138.452C25.9476 145.979 24.9572 151.723 22.9765 156.477H37.436Z" fill="white" />
  <path d="M91.7055 158.46C96.0631 158.46 99.6285 156.876 101.609 154.499L114.088 161.629C108.938 168.76 101.213 172.325 91.3093 172.325C73.4827 172.325 62.3906 160.441 62.3906 144.793C62.3906 129.145 73.6808 117.261 90.121 117.261C105.373 117.261 116.465 128.947 116.465 144.793C116.465 146.972 116.267 149.15 115.871 151.131H79.2269C81.2076 156.677 85.9614 158.46 91.7055 158.46ZM101.213 139.643C99.6284 133.701 94.8747 131.324 90.121 131.324C84.1787 131.324 80.2172 134.295 78.8307 139.643H101.213Z" fill="white" />
  <path d="M165.589 133.898H150.139V170.938H134.492V133.898H118.844V118.845H165.589V133.898Z" fill="white" />
  <path d="M167.766 144.991C167.766 129.541 179.452 117.458 195.298 117.458C205.4 117.458 214.313 122.806 218.869 130.729L205.201 138.652C203.419 135.087 199.655 132.908 195.1 132.908C188.365 132.908 183.413 137.86 183.413 144.991C183.413 152.121 188.365 157.073 195.1 157.073C199.655 157.073 203.617 154.894 205.201 151.329L218.869 159.053C214.313 167.175 205.598 172.523 195.298 172.523C179.452 172.523 167.766 160.44 167.766 144.991Z" fill="white" />
  <path d="M257.692 170.938L241.054 147.961V170.938H225.406V118.845H241.054V141.623L256.702 118.845H274.925L255.91 144.792L275.321 170.74H257.692V170.938Z" fill="white" />
  <path d="M330.19 119.041V171.135H314.938V145.187L292.754 171.135H281.266V119.041H296.517V144.989L318.702 119.041H330.19Z" fill="white" />
  <path d="M368.026 158.46C372.383 158.46 375.949 156.876 377.93 154.499L390.408 161.629C385.258 168.76 377.533 172.325 367.63 172.325C349.803 172.325 338.711 160.441 338.711 144.793C338.711 129.145 350.001 117.261 366.441 117.261C381.693 117.261 392.785 128.947 392.785 144.793C392.785 146.972 392.587 149.15 392.191 151.131H355.349C357.528 156.677 362.282 158.46 368.026 158.46ZM377.533 139.643C375.949 133.701 371.195 131.324 366.441 131.324C360.499 131.324 356.538 134.295 355.151 139.643H377.533Z" fill="white" />
</svg>